<svg id="Layer_1" data-name="Layer 1" xmlns="http://www.w3.org/2000/svg" viewBox="0 0 800 800"><defs><style>.cls-1{fill:#bb2025;}</style></defs><title>heart2</title><path class="cls-1" d="M85.17,295V261.68a25.33,25.33,0,0,0,1.18-4.09c4.29-37.49,18.56-70.59,44.42-98.15,40.24-42.88,90.62-59.8,148.31-53.89,38.94,4,73.53,19.84,102.92,46,6.53,5.82,12.05,12.79,17.95,19.13,9-8.35,16.37-16.08,24.59-22.79,40.24-32.79,86.4-47.62,138.09-42.62C600.48,109,634.1,123.62,662,149.86c41.57,39.08,58.6,87.9,54.48,144.09-3.18,43.3-20.65,81.64-44.52,117.28-33.09,49.41-75,91-117.68,131.83C504.46,590.63,450.67,634,403,683.89a30.87,30.87,0,0,1-3.16,2.23c-1.33-1.86-2.41-3.94-4-5.51-14.27-14.24-28.26-28.78-43-42.47-42.85-39.7-86.51-78.53-128.93-118.67-35-33.11-67.4-68.75-94.13-109.09C113.49,385.8,99.84,359.85,92.62,331,89.64,319.14,87.62,307,85.17,295Z"/></svg>